Coordinates
version=1
nRows=43
nColumns=12
inDegrees=yes

Units are S.I. units (second, meters, Newtons, ...)
Angles are in degrees

endheader
time	SC_y	SC_z	SC_x	AC_y	AC_z	AC_x	GH_y	GH_z	GH_yy	EL_x	PS_y
       0.0              -25.03          13.41           71.3          34.98         -4.938          7.133         -17.73          51.86          157.2          29.39          75.05
  0.001126              -25.04          13.41           71.3          34.98         -4.939          7.133         -17.75          51.86          157.2          29.41          75.05
  0.002251              -25.04          13.41          71.29          34.99         -4.939          7.132         -17.77          51.86          157.1          29.43          75.04
  0.003377              -25.04          13.41          71.28           35.0         -4.939          7.132         -17.79          51.86          157.1          29.44          75.04
  0.004503              -25.05          13.41          71.27           35.0         -4.939          7.132         -17.82          51.86          157.1          29.46          75.03
  0.005628              -25.05          13.42          71.26          35.01          -4.94          7.132         -17.84          51.86          157.1          29.48          75.03
  0.006754              -25.06          13.42          71.25          35.02          -4.94          7.132         -17.87          51.86          157.1           29.5          75.02
   0.00788              -25.07          13.42          71.24          35.02          -4.94          7.131          -17.9          51.86          157.0          29.53          75.02
  0.009006              -25.07          13.42          71.23          35.03          -4.94          7.131         -17.93          51.85          157.0          29.55          75.01
   0.01013              -25.08          13.43          71.22          35.04         -4.941          7.131         -17.96          51.85          157.0          29.58           75.0
   0.01126              -25.09          13.43           71.2          35.05         -4.941          7.131          -18.0          51.85          156.9          29.61           75.0
   0.01238              -25.09          13.44          71.19          35.06         -4.941           7.13         -18.04          51.85          156.9          29.64          74.99
   0.01351               -25.1          13.44          71.17          35.07         -4.942           7.13         -18.08          51.85          156.9          29.67          74.98
   0.01463              -25.11          13.44          71.15          35.08         -4.942          7.129         -18.12          51.84          156.8          29.71          74.97
   0.01576              -25.12          13.45          71.14          35.09         -4.943          7.129         -18.17          51.84          156.8          29.74          74.96
   0.01689              -25.13          13.45          71.12          35.11         -4.943          7.129         -18.23          51.84          156.8          29.79          74.95
   0.01801              -25.14          13.46          71.09          35.12         -4.944          7.128         -18.28          51.84          156.7          29.83          74.94
   0.01914              -25.16          13.46          71.07          35.14         -4.944          7.128         -18.34          51.83          156.7          29.88          74.93
   0.02026              -25.17          13.47          71.05          35.15         -4.945          7.127         -18.41          51.83          156.6          29.93          74.91
   0.02139              -25.19          13.48          71.02          35.17         -4.946          7.126         -18.49          51.83          156.6          29.99           74.9
   0.02251               -25.2          13.49          70.99          35.19         -4.946          7.126         -18.57          51.82          156.5          30.06          74.88
   0.02364              -25.22          13.49          70.95          35.22         -4.947          7.125         -18.66          51.82          156.4          30.13          74.86
   0.02477              -25.24           13.5          70.91          35.24         -4.948          7.124         -18.76          51.81          156.3          30.21          74.84
   0.02589              -25.26          13.51          70.87          35.27         -4.949          7.123         -18.87          51.81          156.2           30.3          74.82
   0.02702              -25.29          13.53          70.83           35.3          -4.95          7.122         -18.99           51.8          156.1          30.39           74.8
   0.02814              -25.32          13.54          70.77          35.34         -4.952          7.121         -19.13          51.79          156.0           30.5          74.77
   0.02927              -25.35          13.55          70.72          35.38         -4.953           7.12         -19.28          51.79          155.9          30.62          74.74
   0.03039              -25.38          13.57          70.65          35.42         -4.955          7.118         -19.46          51.78          155.8          30.76           74.7
   0.03152              -25.42          13.59          70.58          35.47         -4.957          7.117         -19.65          51.77          155.6          30.91          74.67
   0.03265              -25.47          13.61          70.49          35.53         -4.959          7.115         -19.87          51.76          155.4          31.09          74.62
   0.03377              -25.52          13.63           70.4          35.59         -4.961          7.113         -20.13          51.74          155.2          31.29          74.57
    0.0349              -25.58          13.66          70.29          35.67         -4.964           7.11         -20.42          51.73          155.0          31.52          74.51
   0.03602              -25.64          13.69          70.16          35.75         -4.967          7.107         -20.75          51.71          154.7          31.78          74.44
   0.03715              -25.72          13.73          70.01          35.85          -4.97          7.104         -21.14          51.69          154.4          32.09          74.37
   0.03827              -25.81          13.78          69.84          35.97         -4.975            7.1          -21.6          51.67          154.0          32.45          74.28
    0.0394              -25.92          13.83          69.64          36.11          -4.98          7.096         -22.14          51.64          153.6          32.88          74.17
   0.04052              -26.05          13.89           69.4          36.27         -4.986          7.091         -22.77          51.61          153.1          33.38          74.04
   0.04165              -26.21          13.96          69.11          36.46         -4.993          7.084         -23.54          51.57          152.5          33.99          73.89
   0.04278              -26.39          14.05          68.76           36.7         -5.002          7.076         -24.47          51.52          151.7          34.72           73.7
    0.0439              -26.62          14.16          68.33          36.99         -5.012          7.067          -25.6          51.46          150.8          35.61          73.47
   0.04503              -26.91          14.29           67.8          37.35         -5.025          7.055         -26.99          51.39          149.6          36.71          73.19
   0.04615              -27.26          14.46          67.14          37.79         -5.041          7.041         -28.73           51.3          148.2          38.09          72.84
   0.04728               -27.7          14.67          66.32          38.35         -5.062          7.022         -30.93          51.19          146.5          39.82           72.4
